<?xml version="1.0" encoding="UTF-8"?>
<svg xmlns="http://www.w3.org/2000/svg" viewBox="0 0 1100 640" font-family="-apple-system,BlinkMacSystemFont,Segoe UI,system-ui,sans-serif">
  <rect width="1100" height="640" fill="#fff"/>
  <text x="70" y="30" font-size="17" font-weight="700" fill="#111">Cost (USD) per typical web app screenshot understanding task  vs  LMArena Vision ELO</text>
  <text x="70" y="50" font-size="11" fill="#666">Source: lmarena.ai Vision leaderboard (1,064,509 votes, 131 models, Jun 25 2026) — Pareto frontier in green</text>

  <!-- Grid -->
  <g stroke="#f0f0f0" stroke-width="1">
    <line x1="70" y1="60" x2="70" y2="570"/>
    <text x="70" y="588" font-size="11" fill="#555" text-anchor="middle">$0.0001</text>
    <line x1="403.3333333333333" y1="60" x2="403.3333333333333" y2="570"/>
    <text x="403.3333333333333" y="588" font-size="11" fill="#555" text-anchor="middle">$0.001</text>
    <line x1="736.6666666666666" y1="60" x2="736.6666666666666" y2="570"/>
    <text x="736.6666666666666" y="588" font-size="11" fill="#555" text-anchor="middle">$0.010</text>
    <line x1="1070" y1="60" x2="1070" y2="570"/>
    <text x="1070" y="588" font-size="11" fill="#555" text-anchor="middle">$0.100</text>
    <line x1="70" y1="570" x2="1070" y2="570"/>
    <text x="60" y="574" font-size="11" fill="#555" text-anchor="end">1100</text>
    <line x1="70" y1="525.6521739130435" x2="1070" y2="525.6521739130435"/>
    <text x="60" y="529.6521739130435" font-size="11" fill="#555" text-anchor="end">1120</text>
    <line x1="70" y1="481.30434782608694" x2="1070" y2="481.30434782608694"/>
    <text x="60" y="485.30434782608694" font-size="11" fill="#555" text-anchor="end">1140</text>
    <line x1="70" y1="436.95652173913044" x2="1070" y2="436.95652173913044"/>
    <text x="60" y="440.95652173913044" font-size="11" fill="#555" text-anchor="end">1160</text>
    <line x1="70" y1="392.60869565217394" x2="1070" y2="392.60869565217394"/>
    <text x="60" y="396.60869565217394" font-size="11" fill="#555" text-anchor="end">1180</text>
    <line x1="70" y1="348.26086956521743" x2="1070" y2="348.26086956521743"/>
    <text x="60" y="352.26086956521743" font-size="11" fill="#555" text-anchor="end">1200</text>
    <line x1="70" y1="303.9130434782609" x2="1070" y2="303.9130434782609"/>
    <text x="60" y="307.9130434782609" font-size="11" fill="#555" text-anchor="end">1220</text>
    <line x1="70" y1="259.5652173913043" x2="1070" y2="259.5652173913043"/>
    <text x="60" y="263.5652173913043" font-size="11" fill="#555" text-anchor="end">1240</text>
    <line x1="70" y1="215.21739130434784" x2="1070" y2="215.21739130434784"/>
    <text x="60" y="219.21739130434784" font-size="11" fill="#555" text-anchor="end">1260</text>
    <line x1="70" y1="170.86956521739128" x2="1070" y2="170.86956521739128"/>
    <text x="60" y="174.86956521739128" font-size="11" fill="#555" text-anchor="end">1280</text>
    <line x1="70" y1="126.5217391304348" x2="1070" y2="126.5217391304348"/>
    <text x="60" y="130.5217391304348" font-size="11" fill="#555" text-anchor="end">1300</text>
    <line x1="70" y1="82.17391304347825" x2="1070" y2="82.17391304347825"/>
    <text x="60" y="86.17391304347825" font-size="11" fill="#555" text-anchor="end">1320</text>
  </g>
  <line x1="70" y1="60" x2="70" y2="570" stroke="#111" stroke-width="1"/>
  <line x1="70" y1="570" x2="1070" y2="570" stroke="#111" stroke-width="1"/>
  <text x="570" y="615" font-size="12" font-weight="600" fill="#111" text-anchor="middle">Cost per vision task (USD, log scale)</text>
  <text x="20" y="315" font-size="12" font-weight="600" fill="#111" text-anchor="middle" transform="rotate(-90 20 315)">LMArena Vision ELO (higher = better)</text>
  <polyline points="186.52296750289196,261.7826086956522 372.7568331652413,201.91304347826085 468.1714472941557,188.6086956521739 668.8581110701432,150.91304347826087 786.9188132867697,133.17391304347825 786.9188132867697,130.95652173913044 887.2621451747634,102.13043478260869" fill="none" stroke="#16a34a" stroke-width="2.5" stroke-dasharray="6 4"/>
  <g transform="translate(186.52296750289196,261.7826086956522)">
      <polygon points="0,-9 7,0 0,9 -7,0" fill="#16a34a" stroke="#064e3b" stroke-width="2"/>
    </g>
  <circle cx="338.95267650627255" cy="339.39130434782606" r="4.5" fill="#10b981" stroke="#fff" stroke-width="1"/>
  <g transform="translate(372.7568331652413,201.91304347826085)">
      <polygon points="0,-9 7,0 0,9 -7,0" fill="#16a34a" stroke="#064e3b" stroke-width="2"/>
    </g>
  <circle cx="393.2162801602418" cy="390.3913043478261" r="4.5" fill="#10b981" stroke="#fff" stroke-width="1"/>
  <circle cx="393.2162801602418" cy="390.3913043478261" r="4.5" fill="#10b981" stroke="#fff" stroke-width="1"/>
  <circle cx="423.44000956276165" cy="317.2173913043478" r="4.5" fill="#3b82f6" stroke="#fff" stroke-width="1"/>
  <circle cx="463.75725718648715" cy="255.1304347826087" r="4.5" fill="#f59e0b" stroke="#fff" stroke-width="1"/>
  <g transform="translate(468.1714472941557,188.6086956521739)">
      <polygon points="0,-9 7,0 0,9 -7,0" fill="#16a34a" stroke="#064e3b" stroke-width="2"/>
    </g>
  <circle cx="479.97922863597785" cy="244.0434782608696" r="4.5" fill="#8b5cf6" stroke="#fff" stroke-width="1"/>
  <circle cx="526.8685336460494" cy="224.08695652173915" r="4.5" fill="#10b981" stroke="#fff" stroke-width="1"/>
  <circle cx="530.8224406719435" cy="241.82608695652178" r="4.5" fill="#1f2937" stroke="#fff" stroke-width="1"/>
  <circle cx="533.850855536976" cy="204.13043478260872" r="4.5" fill="#8b5cf6" stroke="#fff" stroke-width="1"/>
  <circle cx="533.850855536976" cy="204.13043478260872" r="4.5" fill="#8b5cf6" stroke="#fff" stroke-width="1"/>
  <circle cx="553.92881184143" cy="512.3478260869565" r="4.5" fill="#d97706" stroke="#fff" stroke-width="1"/>
  <circle cx="619.7782862373807" cy="232.95652173913047" r="4.5" fill="#1f2937" stroke="#fff" stroke-width="1"/>
  <circle cx="626.2062816055814" cy="292.82608695652175" r="4.5" fill="#10b981" stroke="#fff" stroke-width="1"/>
  <circle cx="626.2062816055814" cy="292.82608695652175" r="4.5" fill="#10b981" stroke="#fff" stroke-width="1"/>
  <circle cx="626.2062816055814" cy="264" r="4.5" fill="#10b981" stroke="#fff" stroke-width="1"/>
  <circle cx="626.2062816055814" cy="264" r="4.5" fill="#10b981" stroke="#fff" stroke-width="1"/>
  <circle cx="627.2118655340432" cy="188.6086956521739" r="4.5" fill="#3b82f6" stroke="#fff" stroke-width="1"/>
  <g transform="translate(668.8581110701432,150.91304347826087)">
      <polygon points="0,-9 7,0 0,9 -7,0" fill="#16a34a" stroke="#064e3b" stroke-width="2"/>
    </g>
  <circle cx="668.8581110701432" cy="150.91304347826087" r="4.5" fill="#3b82f6" stroke="#fff" stroke-width="1"/>
  <circle cx="668.8581110701432" cy="170.86956521739128" r="4.5" fill="#3b82f6" stroke="#fff" stroke-width="1"/>
  <circle cx="674.9156268316608" cy="281.7391304347826" r="4.5" fill="#10b981" stroke="#fff" stroke-width="1"/>
  <circle cx="674.9156268316608" cy="281.7391304347826" r="4.5" fill="#10b981" stroke="#fff" stroke-width="1"/>
  <circle cx="674.9156268316608" cy="281.7391304347826" r="4.5" fill="#10b981" stroke="#fff" stroke-width="1"/>
  <circle cx="701.1614487394953" cy="179.7391304347826" r="4.5" fill="#10b981" stroke="#fff" stroke-width="1"/>
  <circle cx="712.9692300813176" cy="374.8695652173913" r="4.5" fill="#d97706" stroke="#fff" stroke-width="1"/>
  <circle cx="712.9692300813176" cy="175.30434782608697" r="4.5" fill="#d97706" stroke="#fff" stroke-width="1"/>
  <circle cx="712.9692300813176" cy="175.30434782608697" r="4.5" fill="#d97706" stroke="#fff" stroke-width="1"/>
  <circle cx="726.5496134935751" cy="323.8695652173913" r="4.5" fill="#10b981" stroke="#fff" stroke-width="1"/>
  <g transform="translate(786.9188132867697,133.17391304347825)">
      <polygon points="0,-9 7,0 0,9 -7,0" fill="#16a34a" stroke="#064e3b" stroke-width="2"/>
    </g>
  <circle cx="786.9188132867697" cy="133.17391304347825" r="4.5" fill="#d97706" stroke="#fff" stroke-width="1"/>
  <g transform="translate(786.9188132867697,130.95652173913044)">
      <polygon points="0,-9 7,0 0,9 -7,0" fill="#16a34a" stroke="#064e3b" stroke-width="2"/>
    </g>
  <circle cx="786.9188132867697" cy="164.21739130434784" r="4.5" fill="#d97706" stroke="#fff" stroke-width="1"/>
  <circle cx="792.7342489475436" cy="374.8695652173913" r="4.5" fill="#d97706" stroke="#fff" stroke-width="1"/>
  <circle cx="801.504780627489" cy="159.78260869565216" r="4.5" fill="#10b981" stroke="#fff" stroke-width="1"/>
  <g transform="translate(887.2621451747634,102.13043478260869)">
      <polygon points="0,-9 7,0 0,9 -7,0" fill="#16a34a" stroke="#064e3b" stroke-width="2"/>
    </g>
  <circle cx="1046.3025634146509" cy="133.17391304347825" r="4.5" fill="#d97706" stroke="#fff" stroke-width="1"/>
  <circle cx="1046.3025634146509" cy="130.95652173913044" r="4.5" fill="#d97706" stroke="#fff" stroke-width="1"/>
  <g>
    <text x="198.52296750289196" y="247.7826086956522" font-size="10.5" font-weight="600" fill="#065f46">mimo-v2.5</text>
    <text x="198.52296750289196" y="259.7826086956522" font-size="9.5" fill="#666">$0.000224 • ELO 1239</text>
  </g>
  <g>
    <text x="384.7568331652413" y="223.91304347826085" font-size="10.5" font-weight="600" fill="#065f46">qwen3.7-plus</text>
    <text x="384.7568331652413" y="235.91304347826085" font-size="9.5" fill="#666">$0.000810 • ELO 1266</text>
  </g>
  <g>
    <text x="480.1714472941557" y="174.6086956521739" font-size="10.5" font-weight="600" fill="#065f46">gemini-3-flash</text>
    <text x="480.1714472941557" y="186.6086956521739" font-size="9.5" fill="#666">$0.001565 • ELO 1272</text>
  </g>
  <g>
    <text x="680.8581110701432" y="172.91304347826087" font-size="10.5" font-weight="600" fill="#065f46">gemini-3-pro</text>
    <text x="680.8581110701432" y="184.91304347826087" font-size="9.5" fill="#666">$0.006260 • ELO 1289</text>
  </g>
  <g>
    <text x="798.9188132867697" y="119.17391304347825" font-size="10.5" font-weight="600" fill="#065f46">claude-opus-4-6</text>
    <text x="798.9188132867697" y="131.17391304347825" font-size="9.5" fill="#666">$0.014150 • ELO 1297</text>
  </g>
  <g>
    <text x="798.9188132867697" y="152.95652173913044" font-size="10.5" font-weight="600" fill="#065f46">claude-opus-4-7</text>
    <text x="798.9188132867697" y="164.95652173913044" font-size="9.5" fill="#666">$0.014150 • ELO 1298</text>
  </g>
  <g>
    <text x="899.2621451747634" y="88.13043478260869" font-size="10.5" font-weight="600" fill="#065f46">claude-fable-5</text>
    <text x="899.2621451747634" y="100.13043478260869" font-size="9.5" fill="#666">$0.028300 • ELO 1311</text>
  </g>
  <circle cx="75" cy="628" r="4" fill="#16a34a"/>
  <text x="84" y="632" font-size="10.5" fill="#333">Pareto-optimal</text>
  <circle cx="190" cy="628" r="4" fill="#d97706"/>
  <text x="199" y="632" font-size="10.5" fill="#333">Anthropic</text>
  <circle cx="272.5" cy="628" r="4" fill="#10b981"/>
  <text x="281.5" y="632" font-size="10.5" fill="#333">OpenAI</text>
  <circle cx="335.5" cy="628" r="4" fill="#3b82f6"/>
  <text x="344.5" y="632" font-size="10.5" fill="#333">Google</text>
  <circle cx="398.5" cy="628" r="4" fill="#1f2937"/>
  <text x="407.5" y="632" font-size="10.5" fill="#333">xAI</text>
  <circle cx="442" cy="628" r="4" fill="#ec4899"/>
  <text x="451" y="632" font-size="10.5" fill="#333">Alibaba</text>
  <circle cx="511.5" cy="628" r="4" fill="#8b5cf6"/>
  <text x="520.5" y="632" font-size="10.5" fill="#333">Moonshot</text>
  <circle cx="587.5" cy="628" r="4" fill="#f59e0b"/>
  <text x="596.5" y="632" font-size="10.5" fill="#333">MiniMax</text>
  <circle cx="657" cy="628" r="4" fill="#06b6d4"/>
  <text x="666" y="632" font-size="10.5" fill="#333">Xiaomi</text>
</svg>