<?xml version="1.0" encoding="UTF-8"?>
<svg xmlns="http://www.w3.org/2000/svg" viewBox="0 0 1200 700" font-family="-apple-system,BlinkMacSystemFont,Segoe UI,system-ui,sans-serif">
  <rect width="1200" height="700" fill="#fff"/>
  <text x="70" y="30" font-size="18" font-weight="700" fill="#111">Vision-Capable Models from Cursor + OpenCode: Cost vs LMArena Vision ELO</text>
  <text x="70" y="50" font-size="11" fill="#666">Two Pareto frontiers: API-rate pricing (green, 8 models) and OpenCode-Go subscription pricing (orange, 9 models, includes 3x usage discount)</text>
  <text x="70" y="66" font-size="10" fill="#888">Source: lmarena.ai Vision leaderboard (1,064,509 votes, Jun 25 2026) — Task: 1280×800 web app screenshot, 1280 img + 50 prompt + 300 output tokens</text>

  <!-- Grid -->
  <g stroke="#f0f0f0" stroke-width="1">
    <line x1="70" y1="80" x2="70" y2="630"/>
    <text x="70" y="648" font-size="11" fill="#555" text-anchor="middle">$0.0001</text>
    <line x1="436.66666666666663" y1="80" x2="436.66666666666663" y2="630"/>
    <text x="436.66666666666663" y="648" font-size="11" fill="#555" text-anchor="middle">$0.001</text>
    <line x1="803.3333333333333" y1="80" x2="803.3333333333333" y2="630"/>
    <text x="803.3333333333333" y="648" font-size="11" fill="#555" text-anchor="middle">$0.010</text>
    <line x1="1170" y1="80" x2="1170" y2="630"/>
    <text x="1170" y="648" font-size="11" fill="#555" text-anchor="middle">$0.100</text>
    <line x1="70" y1="630" x2="1170" y2="630"/>
    <text x="60" y="634" font-size="11" fill="#555" text-anchor="end">1100</text>
    <line x1="70" y1="582.1739130434783" x2="1170" y2="582.1739130434783"/>
    <text x="60" y="586.1739130434783" font-size="11" fill="#555" text-anchor="end">1120</text>
    <line x1="70" y1="534.3478260869565" x2="1170" y2="534.3478260869565"/>
    <text x="60" y="538.3478260869565" font-size="11" fill="#555" text-anchor="end">1140</text>
    <line x1="70" y1="486.52173913043475" x2="1170" y2="486.52173913043475"/>
    <text x="60" y="490.52173913043475" font-size="11" fill="#555" text-anchor="end">1160</text>
    <line x1="70" y1="438.69565217391306" x2="1170" y2="438.69565217391306"/>
    <text x="60" y="442.69565217391306" font-size="11" fill="#555" text-anchor="end">1180</text>
    <line x1="70" y1="390.86956521739137" x2="1170" y2="390.86956521739137"/>
    <text x="60" y="394.86956521739137" font-size="11" fill="#555" text-anchor="end">1200</text>
    <line x1="70" y1="343.04347826086956" x2="1170" y2="343.04347826086956"/>
    <text x="60" y="347.04347826086956" font-size="11" fill="#555" text-anchor="end">1220</text>
    <line x1="70" y1="295.2173913043478" x2="1170" y2="295.2173913043478"/>
    <text x="60" y="299.2173913043478" font-size="11" fill="#555" text-anchor="end">1240</text>
    <line x1="70" y1="247.3913043478261" x2="1170" y2="247.3913043478261"/>
    <text x="60" y="251.3913043478261" font-size="11" fill="#555" text-anchor="end">1260</text>
    <line x1="70" y1="199.56521739130432" x2="1170" y2="199.56521739130432"/>
    <text x="60" y="203.56521739130432" font-size="11" fill="#555" text-anchor="end">1280</text>
    <line x1="70" y1="151.73913043478262" x2="1170" y2="151.73913043478262"/>
    <text x="60" y="155.73913043478262" font-size="11" fill="#555" text-anchor="end">1300</text>
    <line x1="70" y1="103.91304347826085" x2="1170" y2="103.91304347826085"/>
    <text x="60" y="107.91304347826085" font-size="11" fill="#555" text-anchor="end">1320</text>
  </g>
  <line x1="70" y1="80" x2="70" y2="630" stroke="#111" stroke-width="1"/>
  <line x1="70" y1="630" x2="1170" y2="630" stroke="#111" stroke-width="1"/>
  <text x="620" y="675" font-size="13" font-weight="600" fill="#111" text-anchor="middle">Cost per vision task (USD, log scale)</text>
  <text x="20" y="355" font-size="13" font-weight="600" fill="#111" text-anchor="middle" transform="rotate(-90 20 355)">LMArena Vision ELO (higher = better)</text>
  <line x1="503.13298290513586" y1="290.4347826086956" x2="217.8108577644666" y2="290.4347826086956" stroke="#fb923c" stroke-width="1" stroke-dasharray="2 2" opacity="0.6"/>
  <polyline points="169.24890658639242,486.52173913043475 198.17526425318115,297.60869565217394 362.0772555104909,283.2608695652174 403.0325164817654,233.04347826086953 507.9885920235713,218.69565217391303 728.7439221771575,178.04347826086956 858.6106946154466,170.8695652173913 968.9883596922397,125.43478260869563" fill="none" stroke="#16a34a" stroke-width="2.5" stroke-dasharray="6 4"/>
  <polyline points="169.24890658639242,486.52173913043475 198.17526425318115,297.60869565217394 217.8108577644666,290.4347826086956 362.0772555104909,283.2608695652174 403.0325164817654,233.04347826086953 507.9885920235713,218.69565217391303 728.7439221771575,178.04347826086956 858.6106946154466,170.8695652173913 968.9883596922397,125.43478260869563" fill="none" stroke="#ea580c" stroke-width="2.5" stroke-dasharray="2 3"/>
  <polygon points="169.24890658639242,477.52173913043475 177.24890658639242,486.52173913043475 169.24890658639242,495.52173913043475 161.24890658639242,486.52173913043475" fill="#16a34a" stroke="#064e3b" stroke-width="2"/>
  <polygon points="198.17526425318115,288.60869565217394 206.17526425318115,297.60869565217394 198.17526425318115,306.60869565217394 190.17526425318115,297.60869565217394" fill="#16a34a" stroke="#064e3b" stroke-width="2"/>
  <polygon points="362.0772555104909,274.2608695652174 370.0772555104909,283.2608695652174 362.0772555104909,292.2608695652174 354.0772555104909,283.2608695652174" fill="#16a34a" stroke="#064e3b" stroke-width="2"/>
  <circle cx="365.8479441568998" cy="381.30434782608694" r="4.5" fill="#10b981" stroke="#fff" stroke-width="1"/>
  <polygon points="403.0325164817654,224.04347826086953 411.0325164817654,233.04347826086953 403.0325164817654,242.04347826086953 395.0325164817654,233.04347826086953" fill="#16a34a" stroke="#064e3b" stroke-width="2"/>
  <circle cx="425.53790817626594" cy="436.304347826087" r="4.5" fill="#10b981" stroke="#fff" stroke-width="1"/>
  <circle cx="425.53790817626594" cy="436.304347826087" r="4.5" fill="#6b7280" stroke="#fff" stroke-width="1"/>
  <circle cx="456.4103565124926" cy="347.8260869565217" r="4.5" fill="#06b6d4" stroke="#fff" stroke-width="1"/>
  <circle cx="458.78401051903785" cy="357.39130434782606" r="4.5" fill="#3b82f6" stroke="#fff" stroke-width="1"/>
  <polygon points="217.8108577644666,283.4347826086956 223.8108577644666,290.4347826086956 217.8108577644666,297.4347826086956 211.8108577644666,290.4347826086956" fill="#ea580c" stroke="#7c2d12" stroke-width="2"/>
  <circle cx="503.13298290513586" cy="290.4347826086956" r="4.5" fill="#f59e0b" stroke="#fff" stroke-width="1"/>
  <polygon points="507.9885920235713,209.69565217391303 515.9885920235713,218.69565217391303 507.9885920235713,227.69565217391303 499.9885920235713,218.69565217391303" fill="#16a34a" stroke="#064e3b" stroke-width="2"/>
  <circle cx="507.9885920235713" cy="259.3478260869565" r="4.5" fill="#6b7280" stroke="#fff" stroke-width="1"/>
  <circle cx="520.9771514995757" cy="278.47826086956525" r="4.5" fill="#8b5cf6" stroke="#fff" stroke-width="1"/>
  <circle cx="520.9771514995757" cy="278.47826086956525" r="4.5" fill="#6b7280" stroke="#fff" stroke-width="1"/>
  <circle cx="572.5553870106544" cy="256.95652173913044" r="4.5" fill="#10b981" stroke="#fff" stroke-width="1"/>
  <circle cx="576.9046847391378" cy="276.0869565217391" r="4.5" fill="#1f2937" stroke="#fff" stroke-width="1"/>
  <circle cx="580.2359410906736" cy="235.43478260869568" r="4.5" fill="#8b5cf6" stroke="#fff" stroke-width="1"/>
  <circle cx="580.2359410906736" cy="235.43478260869568" r="4.5" fill="#6b7280" stroke="#fff" stroke-width="1"/>
  <circle cx="599.6548423224824" cy="388.4782608695652" r="4.5" fill="#6b7280" stroke="#fff" stroke-width="1"/>
  <circle cx="602.321693025573" cy="567.8260869565217" r="4.5" fill="#d97706" stroke="#fff" stroke-width="1"/>
  <circle cx="602.321693025573" cy="343.04347826086956" r="4.5" fill="#6b7280" stroke="#fff" stroke-width="1"/>
  <circle cx="674.7561148611187" cy="266.5217391304348" r="4.5" fill="#1f2937" stroke="#fff" stroke-width="1"/>
  <circle cx="681.8269097661396" cy="331.0869565217391" r="4.5" fill="#10b981" stroke="#fff" stroke-width="1"/>
  <circle cx="681.8269097661396" cy="300" r="4.5" fill="#10b981" stroke="#fff" stroke-width="1"/>
  <circle cx="681.8269097661396" cy="300" r="4.5" fill="#6b7280" stroke="#fff" stroke-width="1"/>
  <circle cx="681.8269097661396" cy="280.8695652173913" r="4.5" fill="#6b7280" stroke="#fff" stroke-width="1"/>
  <circle cx="682.9330520874475" cy="218.69565217391303" r="4.5" fill="#3b82f6" stroke="#fff" stroke-width="1"/>
  <circle cx="682.9330520874475" cy="218.69565217391303" r="4.5" fill="#6b7280" stroke="#fff" stroke-width="1"/>
  <circle cx="694.8551895079263" cy="350.21739130434787" r="4.5" fill="#6b7280" stroke="#fff" stroke-width="1"/>
  <polygon points="728.7439221771575,169.04347826086956 736.7439221771575,178.04347826086956 728.7439221771575,187.04347826086956 720.7439221771575,178.04347826086956" fill="#16a34a" stroke="#064e3b" stroke-width="2"/>
  <circle cx="728.7439221771575" cy="199.56521739130432" r="4.5" fill="#3b82f6" stroke="#fff" stroke-width="1"/>
  <circle cx="728.7439221771575" cy="178.04347826086956" r="4.5" fill="#6b7280" stroke="#fff" stroke-width="1"/>
  <circle cx="735.4071895148269" cy="319.13043478260875" r="4.5" fill="#10b981" stroke="#fff" stroke-width="1"/>
  <circle cx="764.2775936134449" cy="209.1304347826087" r="4.5" fill="#10b981" stroke="#fff" stroke-width="1"/>
  <circle cx="777.2661530894493" cy="204.34782608695653" r="4.5" fill="#d97706" stroke="#fff" stroke-width="1"/>
  <circle cx="777.2661530894493" cy="223.47826086956525" r="4.5" fill="#6b7280" stroke="#fff" stroke-width="1"/>
  <circle cx="792.2045748429326" cy="364.5652173913044" r="4.5" fill="#10b981" stroke="#fff" stroke-width="1"/>
  <circle cx="858.6106946154466" cy="192.39130434782612" r="4.5" fill="#d97706" stroke="#fff" stroke-width="1"/>
  <polygon points="858.6106946154466,161.8695652173913 866.6106946154466,170.8695652173913 858.6106946154466,179.8695652173913 850.6106946154466,170.8695652173913" fill="#16a34a" stroke="#064e3b" stroke-width="2"/>
  <circle cx="865.0076738422979" cy="419.5652173913043" r="4.5" fill="#d97706" stroke="#fff" stroke-width="1"/>
  <circle cx="874.6552586902379" cy="187.6086956521739" r="4.5" fill="#10b981" stroke="#fff" stroke-width="1"/>
  <polygon points="968.9883596922397,116.43478260869563 976.9883596922397,125.43478260869563 968.9883596922397,134.43478260869563 960.9883596922397,125.43478260869563" fill="#16a34a" stroke="#064e3b" stroke-width="2"/>
  <circle cx="1033.555154679323" cy="247.3913043478261" r="4.5" fill="#6b7280" stroke="#fff" stroke-width="1"/>
  <circle cx="1143.9328197561158" cy="158.91304347826085" r="4.5" fill="#d97706" stroke="#fff" stroke-width="1"/>
  <circle cx="1143.9328197561158" cy="156.52173913043475" r="4.5" fill="#d97706" stroke="#fff" stroke-width="1"/>
  <g>
    <text x="181.24890658639242" y="470.52173913043475" font-size="10.5" font-weight="700" fill="#065f46">GPT-5 Nano</text>
    <text x="181.24890658639242" y="482.52173913043475" font-size="9.5" fill="#666">$0.000187 • ELO 1160</text>
  </g>
  <g>
    <text x="210.17526425318115" y="321.60869565217394" font-size="10.5" font-weight="700" fill="#065f46">mimo-v2.5</text>
    <text x="210.17526425318115" y="333.60869565217394" font-size="9.5" fill="#666">$0.000224 • ELO 1239</text>
  </g>
  <g>
    <text x="374.0772555104909" y="267.2608695652174" font-size="10.5" font-weight="700" fill="#065f46">Qwen3.5 Plus</text>
    <text x="374.0772555104909" y="279.2608695652174" font-size="9.5" fill="#666">$0.000626 • ELO 1245</text>
  </g>
  <g>
    <text x="415.0325164817654" y="257.0434782608695" font-size="10.5" font-weight="700" fill="#065f46">qwen3.7-plus</text>
    <text x="415.0325164817654" y="269.0434782608695" font-size="9.5" fill="#666">$0.000810 • ELO 1266</text>
  </g>
  <g>
    <text x="519.9885920235713" y="202.69565217391303" font-size="10.5" font-weight="700" fill="#065f46">Gemini 3 Flash Preview</text>
    <text x="519.9885920235713" y="214.69565217391303" font-size="9.5" fill="#666">$0.001565 • ELO 1272</text>
  </g>
  <g>
    <text x="740.7439221771575" y="202.04347826086956" font-size="10.5" font-weight="700" fill="#065f46">gemini-3-pro</text>
    <text x="740.7439221771575" y="214.04347826086956" font-size="9.5" fill="#666">$0.006260 • ELO 1289</text>
  </g>
  <g>
    <text x="870.6106946154466" y="154.8695652173913" font-size="10.5" font-weight="700" fill="#065f46">Claude Opus 4.5 (latest)</text>
    <text x="870.6106946154466" y="166.8695652173913" font-size="9.5" fill="#666">$0.014150 • ELO 1292</text>
  </g>
  <g>
    <text x="980.9883596922397" y="149.43478260869563" font-size="10.5" font-weight="700" fill="#065f46">claude-fable-5</text>
    <text x="980.9883596922397" y="161.43478260869563" font-size="9.5" fill="#666">$0.028300 • ELO 1311</text>
  </g>
  <polygon points="75,683 83,688 75,693 67,688" fill="#16a34a" stroke="#064e3b" stroke-width="1.5"/>
  <text x="88" y="692" font-size="10.5" fill="#333">API pricing Pareto (8)</text>
  <polygon points="248,683 256,688 248,693 240,688" fill="#ea580c" stroke="#7c2d12" stroke-width="1.5"/>
  <text x="261" y="692" font-size="10.5" fill="#333">OpenCode Go pricing Pareto (9)</text>
  <circle cx="473" cy="688" r="4" fill="#d97706"/>
  <text x="486" y="692" font-size="10.5" fill="#333">Anthropic</text>
  <circle cx="561.5" cy="688" r="4" fill="#10b981"/>
  <text x="574.5" y="692" font-size="10.5" fill="#333">OpenAI</text>
  <circle cx="630.5" cy="688" r="4" fill="#3b82f6"/>
  <text x="643.5" y="692" font-size="10.5" fill="#333">Google</text>
  <circle cx="699.5" cy="688" r="4" fill="#1f2937"/>
  <text x="712.5" y="692" font-size="10.5" fill="#333">xAI</text>
  <circle cx="749" cy="688" r="4" fill="#ec4899"/>
  <text x="762" y="692" font-size="10.5" fill="#333">Alibaba</text>
  <circle cx="824.5" cy="688" r="4" fill="#8b5cf6"/>
  <text x="837.5" y="692" font-size="10.5" fill="#333">Moonshot</text>
  <circle cx="906.5" cy="688" r="4" fill="#f59e0b"/>
  <text x="919.5" y="692" font-size="10.5" fill="#333">MiniMax</text>
  <circle cx="982" cy="688" r="4" fill="#06b6d4"/>
  <text x="995" y="692" font-size="10.5" fill="#333">Xiaomi</text>
</svg>